<svg xmlns="http://www.w3.org/2000/svg" width="274.604" height="26" viewBox="0 0 274.604 26">
  <g id="K2Devlopment-logo-footer" transform="translate(-204.961 -287.912)">
    <path id="Path_1038" data-name="Path 1038" d="M218.873,288.708h-4.167l-5.555,12.644V288.708h-4.189v24.856h4.189l.027-6.941,1.928-3.946,3.655,10.887h4.382l-5.133-14.425Z" transform="translate(0 -0.224)" fill="#e2e2e2"/>
    <path id="Path_1039" data-name="Path 1039" d="M244.9,289.8a6.1,6.1,0,0,0-4.876-1.889,5.679,5.679,0,0,0-5.946,5.908v2.438h3.427V294.2c0-1.87.921-2.9,2.6-2.9s2.6,1,2.6,2.824c0,2.232-.944,3.945-3.887,7.049-4.353,4.9-5.15,7.586-5.15,11.1v1.064h12.464v-3.5h-8.16v-.269c0-1.849,1.016-3.82,3.2-6.206l.013-.014c3.7-3.507,5.14-6.061,5.14-9.108A6.7,6.7,0,0,0,244.9,289.8Z" transform="translate(-8.073)" fill="#e2e2e2"/>
    <path id="Path_1040" data-name="Path 1040" d="M283.527,288.708h-7.051v24.856h7.051c4.177,0,6.67-2.38,6.67-6.365V295.3C290.2,291.234,287.642,288.708,283.527,288.708Zm2.444,18.262c0,2.026-.938,3.053-2.786,3.053h-2.519V292.249h2.519c1.849,0,2.786,1.04,2.786,3.091Z" transform="translate(-20.116 -0.224)" fill="#e2e2e2"/>
    <path id="Path_1041" data-name="Path 1041" d="M311.064,302.277h5.11v-3.2h-5.11v-6.831h7.4v-3.541H306.875v24.856h11.586V309.87h-7.4Z" transform="translate(-28.667 -0.224)" fill="#e2e2e2"/>
    <path id="Path_1042" data-name="Path 1042" d="M336.114,288.708h-4.32l5.411,24.856h4.142l5.523-24.856h-4.052l-3.394,18.765Z" transform="translate(-35.677 -0.224)" fill="#e2e2e2"/>
    <path id="Path_1043" data-name="Path 1043" d="M366.61,302.277h5.11v-3.2h-5.11v-6.831h7.4v-3.541H362.421v24.856h11.586V309.87h-7.4Z" transform="translate(-44.292 -0.224)" fill="#e2e2e2"/>
    <path id="Path_1044" data-name="Path 1044" d="M393.4,288.708h-4.189v24.856h11.282v-3.655H393.4Z" transform="translate(-51.828 -0.224)" fill="#e2e2e2"/>
    <path id="Path_1045" data-name="Path 1045" d="M421.19,287.965c-4.149,0-6.937,2.666-6.937,6.632v12.659c0,3.99,2.788,6.67,6.937,6.67s6.938-2.681,6.938-6.67V294.6C428.128,290.631,425.34,287.965,421.19,287.965Zm2.71,19.6a2.691,2.691,0,1,1-5.382,0v-13.27a2.691,2.691,0,1,1,5.382,0Z" transform="translate(-58.871 -0.015)" fill="#e2e2e2"/>
    <path id="Path_1046" data-name="Path 1046" d="M452.411,288.708h-7.547v24.856h4.189V303.84h3.358c3.489,0,5.489-1.972,5.489-5.412v-4.271C457.9,290.694,455.9,288.708,452.411,288.708Zm1.453,9.835c0,1.445-.655,2.176-1.948,2.176h-2.863v-8.661h2.863c1.292,0,1.948.732,1.948,2.176Z" transform="translate(-67.482 -0.224)" fill="#e2e2e2"/>
    <path id="Path_1047" data-name="Path 1047" d="M482.083,301.372,479.5,288.708h-5.878v24.856h3.694V295.416l.535-.048.991,5.529,2.511,12.667h3.144l2.662-12.674,1.028-5.523.535.049v18.148h3.922V288.708H486.8l-2.549,12.672-1.11,6.2Z" transform="translate(-75.57 -0.224)" fill="#e2e2e2"/>
    <path id="Path_1048" data-name="Path 1048" d="M515.953,302.277h5.11v-3.2h-5.11v-6.831h7.4v-3.541H511.764v24.856H523.35V309.87h-7.4Z" transform="translate(-86.3 -0.224)" fill="#e2e2e2"/>
    <path id="Path_1049" data-name="Path 1049" d="M542.135,288.708H538.5v24.856h3.808V297.69l2.308,5.205,4.846,10.669h3.217V288.708h-3.731v16.144l-2.2-5.29Z" transform="translate(-93.822 -0.224)" fill="#e2e2e2"/>
    <path id="Path_1050" data-name="Path 1050" d="M572.849,313.564h4.227v-21.2h4.652v-3.655h-13.57v3.655h4.691Z" transform="translate(-102.163 -0.224)" fill="#e2e2e2"/>
  </g>
</svg>
