<svg xmlns="http://www.w3.org/2000/svg" width="225" height="21.303" viewBox="0 0 225 21.303">
  <g id="K2Devlopment-logo" transform="translate(-204.961 -287.912)">
    <path id="Path_1038" data-name="Path 1038" d="M216.351,288.708h-3.412l-4.548,10.36v-10.36h-3.43v20.367h3.43l.022-5.687,1.579-3.234,2.993,8.921h3.587l-4.2-11.82Z" transform="translate(0 -0.328)" fill="#231f20"/>
    <path id="Path_1039" data-name="Path 1039" d="M242.866,289.46a4.992,4.992,0,0,0-3.993-1.548,4.652,4.652,0,0,0-4.868,4.841v2h2.806v-1.685c0-1.532.754-2.376,2.125-2.376s2.125.822,2.125,2.314c0,1.829-.773,3.232-3.182,5.776-3.564,4.017-4.217,6.216-4.217,9.1v.872h10.2v-2.87h-6.681v-.221c0-1.515.832-3.13,2.619-5.085l.011-.011c3.029-2.873,4.208-4.966,4.208-7.463A5.5,5.5,0,0,0,242.866,289.46Z" transform="translate(-11.812)" fill="#231f20"/>
    <path id="Path_1040" data-name="Path 1040" d="M282.249,288.708h-5.773v20.367h5.773c3.42,0,5.461-1.95,5.461-5.215v-9.748C287.71,290.778,285.618,288.708,282.249,288.708Zm2,14.964c0,1.66-.768,2.5-2.281,2.5h-2.062V291.61h2.062c1.513,0,2.281.852,2.281,2.533Z" transform="translate(-29.399 -0.328)" fill="#231f20"/>
    <path id="Path_1041" data-name="Path 1041" d="M310.305,299.827h4.183v-2.62h-4.183v-5.6h6.056v-2.9h-9.486v20.367h9.486v-3.027h-6.056Z" transform="translate(-41.896 -0.328)" fill="#231f20"/>
    <path id="Path_1042" data-name="Path 1042" d="M335.331,288.708h-3.537l4.43,20.367h3.392l4.522-20.367H340.82l-2.778,15.376Z" transform="translate(-52.14 -0.328)" fill="#231f20"/>
    <path id="Path_1043" data-name="Path 1043" d="M365.851,299.827h4.183v-2.62h-4.183v-5.6h6.056v-2.9h-9.486v20.367h9.486v-3.027h-6.056Z" transform="translate(-64.731 -0.328)" fill="#231f20"/>
    <path id="Path_1044" data-name="Path 1044" d="M392.642,288.708h-3.43v20.367h9.237v-3h-5.807Z" transform="translate(-75.745 -0.328)" fill="#231f20"/>
    <path id="Path_1045" data-name="Path 1045" d="M419.933,287.965c-3.4,0-5.68,2.184-5.68,5.434v10.373c0,3.269,2.283,5.465,5.68,5.465s5.68-2.2,5.68-5.465V293.4C425.613,290.149,423.33,287.965,419.933,287.965Zm2.219,16.057a2.2,2.2,0,1,1-4.406,0V293.149a2.2,2.2,0,1,1,4.406,0Z" transform="translate(-86.038 -0.022)" fill="#231f20"/>
    <path id="Path_1046" data-name="Path 1046" d="M451.043,288.708h-6.179v20.367h3.43v-7.967h2.749c2.856,0,4.494-1.616,4.494-4.434v-3.5C455.537,290.335,453.9,288.708,451.043,288.708Zm1.189,8.059c0,1.184-.537,1.783-1.595,1.783h-2.344v-7.1h2.344c1.058,0,1.595.6,1.595,1.783Z" transform="translate(-98.622 -0.328)" fill="#231f20"/>
    <path id="Path_1047" data-name="Path 1047" d="M480.549,299.085l-2.117-10.377h-4.813v20.367h3.024V294.2l.438-.039.811,4.53,2.055,10.379h2.574l2.18-10.385.842-4.526.438.041v14.87h3.211V288.708h-4.781l-2.087,10.383-.909,5.082Z" transform="translate(-110.44 -0.328)" fill="#231f20"/>
    <path id="Path_1048" data-name="Path 1048" d="M515.194,299.827h4.183v-2.62h-4.183v-5.6h6.056v-2.9h-9.486v20.367h9.486v-3.027h-6.056Z" transform="translate(-126.097 -0.328)" fill="#231f20"/>
    <path id="Path_1049" data-name="Path 1049" d="M541.477,288.708H538.5v20.367h3.117V296.068l1.89,4.265,3.967,8.742h2.634V288.708h-3.055v13.228l-1.8-4.335Z" transform="translate(-137.102 -0.328)" fill="#231f20"/>
    <path id="Path_1050" data-name="Path 1050" d="M572,309.075h3.461V291.7h3.809v-3h-11.11v3H572Z" transform="translate(-149.307 -0.328)" fill="#231f20"/>
  </g>
</svg>
