<svg xmlns="http://www.w3.org/2000/svg" width="225" height="21.303" viewBox="0 0 225 21.303">
  <g id="K2Devlopment-logo-footer" transform="translate(-204.961 -287.912)">
    <path id="Path_1038" data-name="Path 1038" d="M216.338,288.708h-3.408l-4.543,10.361V288.708h-3.426v20.368h3.426l.022-5.688,1.577-3.234,2.989,8.921h3.584l-4.2-11.82Z" transform="translate(0 -0.328)" fill="#fff"/>
    <path id="Path_1039" data-name="Path 1039" d="M242.856,289.46a4.984,4.984,0,0,0-3.988-1.548,4.649,4.649,0,0,0-4.863,4.841v2h2.8v-1.685c0-1.532.754-2.376,2.122-2.376s2.122.822,2.122,2.314c0,1.829-.772,3.233-3.179,5.776-3.56,4.017-4.212,6.216-4.212,9.1v.872h10.193v-2.87h-6.674v-.221c0-1.515.831-3.13,2.616-5.085l.011-.011c3.025-2.873,4.2-4.966,4.2-7.463A5.5,5.5,0,0,0,242.856,289.46Z" transform="translate(-11.831)" fill="#fff"/>
    <path id="Path_1040" data-name="Path 1040" d="M282.243,288.708h-5.767v20.368h5.767c3.416,0,5.455-1.95,5.455-5.216v-9.749C287.7,290.778,285.608,288.708,282.243,288.708Zm2,14.964c0,1.66-.767,2.5-2.279,2.5H279.9V291.61h2.06c1.512,0,2.279.852,2.279,2.533Z" transform="translate(-29.397 -0.328)" fill="#fff"/>
    <path id="Path_1041" data-name="Path 1041" d="M310.3,299.827h4.179v-2.621H310.3v-5.6h6.049v-2.9h-9.476v20.368h9.476v-3.027H310.3Z" transform="translate(-41.894 -0.328)" fill="#fff"/>
    <path id="Path_1042" data-name="Path 1042" d="M335.327,288.708h-3.533l4.426,20.368h3.388l4.517-20.368H340.81l-2.775,15.377Z" transform="translate(-52.135 -0.328)" fill="#fff"/>
    <path id="Path_1043" data-name="Path 1043" d="M365.847,299.827h4.179v-2.621h-4.179v-5.6H371.9v-2.9h-9.476v20.368H371.9v-3.027h-6.049Z" transform="translate(-64.727 -0.328)" fill="#fff"/>
    <path id="Path_1044" data-name="Path 1044" d="M392.638,288.708h-3.426v20.368h9.227v-3h-5.8Z" transform="translate(-75.74 -0.328)" fill="#fff"/>
    <path id="Path_1045" data-name="Path 1045" d="M419.926,287.965c-3.393,0-5.673,2.184-5.673,5.434v10.373c0,3.269,2.28,5.465,5.673,5.465s5.674-2.2,5.674-5.465V293.4C425.6,290.149,423.32,287.965,419.926,287.965Zm2.217,16.057a2.2,2.2,0,1,1-4.4,0V293.149a2.2,2.2,0,1,1,4.4,0Z" transform="translate(-86.031 -0.022)" fill="#fff"/>
    <path id="Path_1046" data-name="Path 1046" d="M451.036,288.708h-6.172v20.368h3.426v-7.968h2.746c2.853,0,4.489-1.616,4.489-4.435v-3.5C455.525,290.335,453.889,288.708,451.036,288.708Zm1.188,8.059c0,1.184-.536,1.783-1.593,1.783H448.29v-7.1h2.341c1.057,0,1.593.6,1.593,1.783Z" transform="translate(-98.615 -0.328)" fill="#fff"/>
    <path id="Path_1047" data-name="Path 1047" d="M480.541,299.085l-2.115-10.377h-4.807v20.368h3.021V294.2l.437-.039.81,4.531,2.053,10.379h2.572l2.177-10.386.841-4.526.437.041v14.871h3.208V288.708H484.4l-2.085,10.384-.908,5.082Z" transform="translate(-110.428 -0.328)" fill="#fff"/>
    <path id="Path_1048" data-name="Path 1048" d="M515.19,299.827h4.179v-2.621H515.19v-5.6h6.049v-2.9h-9.476v20.368h9.476v-3.027H515.19Z" transform="translate(-126.049 -0.328)" fill="#fff"/>
    <path id="Path_1049" data-name="Path 1049" d="M541.473,288.708H538.5v20.368h3.114V296.068l1.888,4.265,3.963,8.742H550.1V288.708h-3.051v13.229l-1.8-4.335Z" transform="translate(-137.071 -0.328)" fill="#fff"/>
    <path id="Path_1050" data-name="Path 1050" d="M571.994,309.076h3.457V291.7h3.8v-3h-11.1v3h3.836Z" transform="translate(-149.295 -0.328)" fill="#fff"/>
  </g>
</svg>
